<?xml version="1.0" encoding="utf-8"?>
<!-- Generator: Adobe Illustrator 27.9.0, SVG Export Plug-In . SVG Version: 6.00 Build 0)  -->
<svg version="1.1" id="Layer_1" xmlns="http://www.w3.org/2000/svg" xmlns:xlink="http://www.w3.org/1999/xlink" x="0px" y="0px"
	 viewBox="0 0 1080 1080" style="enable-background:new 0 0 1080 1080;" xml:space="preserve">
<style type="text/css">
	.st0{fill:#041482;}
</style>
<rect x="118.09" y="345.63" class="st0" width="113.19" height="388.74"/>
<path class="st0" d="M256.76,734.37h-1.63V345.63h1.63c107.35,0,194.37,87.02,194.37,194.37v0
	C451.13,647.35,364.11,734.37,256.76,734.37z"/>
<rect x="496.17" y="345.63" class="st0" width="4.15" height="388.74"/>
<g>
	<g>
		<path class="st0" d="M621.78,474.94c-2.19,7.49-5.57,14.13-10.16,19.92c-4.58,5.79-10.47,10.33-17.67,13.61
			c-7.2,3.28-15.82,4.93-25.84,4.93H527.4V388.94h40.71c10.03,0,18.64,1.66,25.84,4.97c7.2,3.31,13.09,7.86,17.67,13.66
			s7.96,12.43,10.16,19.92c2.19,7.49,3.28,15.41,3.28,23.77C625.06,459.56,623.97,467.45,621.78,474.94z M598.57,427.71
			c-2.28-6.31-5.91-11.05-10.89-14.22c-4.98-3.17-11.51-4.75-19.58-4.75h-17.8v85.13h17.8c8.07,0,14.59-1.6,19.58-4.8
			c4.98-3.2,8.61-7.97,10.89-14.3c2.28-6.34,3.41-14.17,3.41-23.51C601.99,441.87,600.85,434.02,598.57,427.71z"/>
		<path class="st0" d="M651.86,513.4h-24.63l45.89-124.46h25.32l45.64,124.46h-24.55l-10.46-30.25h-46.76L651.86,513.4z
			 M703.29,465.09l-17.46-50.22l-17.63,50.22H703.29z"/>
		<path class="st0" d="M783.07,513.4V408.73h-40.79v-19.79h104.58v19.79h-40.71V513.4H783.07z"/>
		<path class="st0" d="M869.6,513.4h-24.63l45.89-124.46h25.32l45.64,124.46h-24.55l-10.46-30.25h-46.76L869.6,513.4z
			 M921.02,465.09l-17.46-50.22l-17.63,50.22H921.02z"/>
	</g>
</g>
<g>
	<g>
		<path class="st0" d="M623.47,695.88V557.57H568.7v-5.74h116.02v5.74h-54.76v138.32H623.47z"/>
		<path class="st0" d="M823.47,695.88h-122.3V551.83h122.3v5.74H707.55v63.31h135.97v6.06H707.55v63.31h115.92V695.88z"/>
		<path class="st0" d="M914.61,551.83c11.9,0,21.65,3.26,29.22,9.79c7.58,6.53,11.36,15.6,11.36,27.22c0,8.01-1.84,14.85-5.52,20.51
			c-3.68,5.67-8.7,9.94-15.04,12.83c8.3,2.24,14.92,6.51,19.86,12.83c4.94,6.31,7.41,14.12,7.41,23.43
			c0,11.62-3.79,20.76-11.36,27.44c-7.58,6.67-17.32,10.01-29.22,10.01h-81.33V551.83H914.61z M846.48,620.56h68.13
			c10.68,0,19.05-2.87,25.11-8.6s9.09-13.44,9.09-23.11c0-9.67-3.03-17.3-9.09-22.89c-6.06-5.59-14.43-8.39-25.11-8.39h-68.13
			V620.56z M846.48,690.26h74.84c10.68,0,19.05-2.88,25.11-8.66c6.06-5.77,9.09-13.49,9.09-23.16c0-9.67-3.03-17.46-9.09-23.38
			c-6.06-5.92-14.43-8.87-25.11-8.87h-74.84V690.26z"/>
	</g>
</g>
</svg>
